<?xml version="1.0" encoding="utf-8"?>
<!DOCTYPE svg PUBLIC "-//W3C//DTD SVG 1.1//EN" "http://www.w3.org/Graphics/SVG/1.1/DTD/svg11.dtd">
<svg version="1.1" id="Layer_1" xmlns="http://www.w3.org/2000/svg" xmlns:xlink="http://www.w3.org/1999/xlink" x="0px" y="0px"
	 width="1920px" height="1080px" viewBox="0 0 1920 1080" enable-background="new 0 0 1920 1080" xml:space="preserve">
<path fill-rule="evenodd" clip-rule="evenodd" d="M620.039,169.278c0,0,0,351.707,0,358.501c0,6.794,7.01,13.805,13.876,13.877
	c6.071,0.072,654.484,0,654.484,0v164.217H749.548V574.037c0,0-108.768,0.071-115.633,0c-7.01-0.072-13.876-4.802-13.876-11.564
	c0.089,14.86,0,191.972,0,191.972h-217.39L187.571,539.343L65,661.928l252.08,252.107h383.902l48.566-48.571h552.727l48.565,48.571
	H1855V754.444h-437.093c0,0,0-351.49,0-358.501c0-7.011-6.936-13.868-13.876-13.877c-6.795-0.01-654.483,0-654.483,0V217.849
	c0,0,647.69,0.072,654.483,0s13.804-6.939,13.876-13.877s0-191.971,0-191.971h-129.509v46.258H749.548L703.295,12H65v157.278
	H620.039z"/>
</svg>
